<svg xmlns="http://www.w3.org/2000/svg" width="24" height="24" fill="currentColor">
  <circle cx="12" cy="12" r="10" fill-opacity=".2"/>
  <path fill-rule="evenodd" d="M12 2C6.49 2 2 6.49 2 12s4.49 10 10 10 10-4.49 10-10S17.51 2 12 2Zm0 19c-4.96 0-9-4.04-9-9s4.04-9 9-9 9 4.04 9 9-4.04 9-9 9Zm5.66-10.5a.5.5 0 0 1-.47-.33A5.51 5.51 0 0 0 12 6.5a5.51 5.51 0 0 0-5.19 3.67.5.5 0 0 1-.64.3.5.5 0 0 1-.3-.64A6.51 6.51 0 0 1 12 5.5a6.52 6.52 0 0 1 6.13 4.33.5.5 0 0 1-.47.67Zm-7.04 1.84A3 3 0 0 1 15 15a3 3 0 0 1-3 3 3 3 0 0 1-2.18-5.06l-1.69-2.17a.5.5 0 0 1 .09-.7.5.5 0 0 1 .7.09l1.7 2.18ZM10 15c0 1.1.9 2 2 2s2-.9 2-2a2 2 0 0 0-3.19-1.61c-.49.37-.81.95-.81 1.61Z" clip-rule="evenodd"/>
</svg>